<?xml version="1.0" standalone="no"?>
<!DOCTYPE svg PUBLIC "-//W3C//DTD SVG 20010904//EN"
 "http://www.w3.org/TR/2001/REC-SVG-20010904/DTD/svg10.dtd">
<svg version="1.0" xmlns="http://www.w3.org/2000/svg"
 width="51.000000pt" height="51.000000pt" viewBox="0 0 51.000000 51.000000"
 preserveAspectRatio="xMidYMid meet">

<g transform="translate(0.000000,51.000000) scale(0.100000,-0.100000)"
fill="#000000" stroke="none">
<path d="M435 497 c-34 -14 -95 -57 -95 -68 0 -4 7 -15 16 -23 18 -19 41 -11
24 9 -7 9 -6 16 5 25 8 7 12 17 8 22 -3 6 0 8 8 6 8 -3 14 -15 13 -27 -1 -21
0 -21 16 -4 14 15 45 75 37 72 -1 0 -16 -6 -32 -12z m0 -26 c-3 -6 -11 -8 -17
-5 -6 4 -5 9 3 15 16 10 23 4 14 -10z"/>
<path d="M225 300 c-55 -55 -96 -100 -91 -100 9 0 198 178 204 192 12 26 -26
-4 -113 -92z"/>
<path d="M102 199 c21 -19 52 -50 69 -69 27 -31 28 -31 11 -5 -21 31 -62 71
-97 94 -11 7 -3 -2 17 -20z"/>
<path d="M89 153 c-13 -16 -12 -17 4 -4 9 7 17 15 17 17 0 8 -8 3 -21 -13z"/>
<path d="M59 113 c-13 -16 -12 -17 4 -4 16 13 21 21 13 21 -2 0 -10 -8 -17
-17z"/>
</g>
</svg>
